<?xml version="1.0" standalone="no"?>
<!DOCTYPE svg PUBLIC "-//W3C//DTD SVG 20010904//EN"
 "http://www.w3.org/TR/2001/REC-SVG-20010904/DTD/svg10.dtd">
<svg version="1.0" xmlns="http://www.w3.org/2000/svg"
 width="256.000000pt" height="256.000000pt" viewBox="0 0 256.000000 256.000000"
 preserveAspectRatio="xMidYMid meet">

<g transform="translate(0.000000,256.000000) scale(0.100000,-0.100000)"
fill="#000000" stroke="none">
<path d="M114 2546 c-17 -8 -40 -26 -52 -41 l-22 -28 0 -1199 0 -1200 34 -34
34 -34 1160 0 1159 0 28 22 c58 45 55 -13 55 1250 0 1087 -1 1165 -18 1197 -9
19 -30 44 -45 55 -28 21 -33 21 -1165 23 -936 2 -1142 0 -1168 -11z m594 -653
l-3 -78 -43 -6 c-68 -9 -71 -19 -72 -214 0 -157 -2 -174 -24 -220 -13 -28 -37
-62 -53 -76 l-30 -25 33 -32 c63 -60 68 -79 74 -279 3 -125 9 -186 17 -194 7
-7 32 -15 55 -18 l43 -6 3 -77 3 -78 -56 0 c-36 0 -70 7 -94 20 -49 24 -108
93 -121 139 -5 20 -10 108 -10 195 l0 160 -75 69 c-68 64 -75 73 -75 108 0 36
5 43 65 90 36 28 70 59 75 69 6 10 10 90 10 177 0 87 5 174 10 194 13 45 71
114 119 139 23 12 57 19 94 20 l58 0 -3 -77z m1288 58 c49 -23 107 -88 122
-140 7 -22 12 -105 12 -195 0 -87 4 -166 10 -176 5 -10 39 -41 75 -69 60 -47
65 -54 65 -90 0 -35 -7 -44 -75 -108 l-75 -69 0 -159 c0 -179 -8 -218 -58
-275 -47 -56 -98 -80 -167 -80 l-56 0 3 78 3 77 43 6 c67 9 71 20 72 209 1
186 9 220 73 281 l34 33 -30 25 c-16 14 -40 48 -53 76 -22 46 -24 63 -24 212
0 206 -4 216 -90 225 -24 3 -25 6 -28 81 l-3 77 53 0 c30 0 71 -9 94 -19z
m-804 -511 c48 -129 87 -245 87 -257 1 -36 18 -35 24 1 3 19 43 138 88 265
l83 231 93 0 93 0 0 -380 0 -380 -76 0 -75 0 3 269 c2 148 2 269 1 268 0 -1
-43 -117 -93 -257 -51 -140 -97 -263 -102 -273 -7 -14 -19 -17 -46 -15 l-37 3
-100 273 -100 273 -3 -271 -2 -270 -60 0 -60 0 0 349 c0 192 -3 363 -6 380
l-7 32 104 -3 104 -3 87 -235z"/>
</g>
</svg>
